<svg xmlns="http://www.w3.org/2000/svg" version="1.1" xmlns:xlink="http://www.w3.org/1999/xlink" xmlns:svgjs="http://svgjs.dev/svgjs" width="1000" height="1000" viewBox="0 0 1000 1000"><rect width="1000" height="1000" fill="#000000"></rect><g transform="matrix(0.7,0,0,0.7,149.57575757575756,361.67946275062116)"><svg viewBox="0 0 396 157" data-background-color="#ffefd3" preserveAspectRatio="xMidYMid meet" height="396" width="1000" xmlns="http://www.w3.org/2000/svg" xmlns:xlink="http://www.w3.org/1999/xlink"><g id="tight-bounds" transform="matrix(1,0,0,1,0.2400000000000091,-0.1582815723214992)"><svg viewBox="0 0 395.52 157.316563144643" height="157.316563144643" width="395.52"><g><svg viewBox="0 0 397.49759999999986 158.10314596036616" height="157.316563144643" width="395.52"><g><rect width="397.49759999999986" height="4.842490543764158" x="0" y="86.8865387245927" fill="#ffffff" opacity="1" stroke-width="0" stroke="transparent" fill-opacity="1" class="rect-o-0" data-fill-palette-color="secondary" rx="1%" id="o-0" data-palette-color="#000000"></rect></g><g transform="matrix(1,0,0,1,0.9887999999999693,104.40570608449339)"><svg viewBox="0 0 395.5199999999999 53.69743987587276" height="53.69743987587276" width="395.5199999999999"><g id="textblocktransform"><svg viewBox="0 0 395.5199999999999 53.69743987587276" height="53.69743987587276" width="395.5199999999999" id="textblock"><g><svg viewBox="0 0 395.5199999999999 53.69743987587276" height="53.69743987587276" width="395.5199999999999"><g transform="matrix(1,0,0,1,0,0)"><svg width="395.5199999999999" viewBox="1.5499999523162842 -43.349998474121094 322.2200012207031 43.75" height="53.69743987587276" data-palette-color="#000000"><path d="M12.15 0.4Q6.95 0.4 4.25-2.78 1.55-5.95 1.55-11.7L1.55-11.7 1.55-32.15Q1.55-37.7 4.25-40.53 6.95-43.35 12.15-43.35L12.15-43.35Q17.35-43.35 20.05-40.53 22.75-37.7 22.75-32.15L22.75-32.15 22.75-11.7Q22.75-5.9 20.05-2.75 17.35 0.4 12.15 0.4L12.15 0.4ZM12.15-7.5Q13.3-7.5 13.7-8.5 14.1-9.5 14.1-11.3L14.1-11.3 14.1-32.3Q14.1-33.7 13.73-34.58 13.35-35.45 12.2-35.45L12.2-35.45Q10.05-35.45 10.05-32.2L10.05-32.2 10.05-11.25Q10.05-9.4 10.5-8.45 10.95-7.5 12.15-7.5L12.15-7.5ZM26.2 0L26.2-42.95 38.05-42.95Q42.65-42.95 44.95-40.4 47.25-37.85 47.3-32.85L47.3-32.85 47.4-12.75Q47.45-6.4 45.2-3.2 42.95 0 37.75 0L37.75 0 26.2 0ZM34.85-7.6L36.35-7.6Q38.7-7.6 38.7-9.9L38.7-9.9 38.7-32.05Q38.7-33.5 38.47-34.23 38.25-34.95 37.65-35.2 37.05-35.45 35.8-35.45L35.8-35.45 34.85-35.45 34.85-7.6ZM64.15 0L56.05 0 56.05-14.15 49.2-42.95 57.7-42.95 60.1-28.4 62.5-42.95 71-42.95 64.15-14.15 64.15 0ZM83.34 0.4Q77.49 0.4 74.89-2.5 72.29-5.4 72.29-11.85L72.29-11.85 72.29-16.05 80.74-16.05 80.74-10.7Q80.74-7.5 82.79-7.5L82.79-7.5Q83.94-7.5 84.39-8.18 84.84-8.85 84.84-10.45L84.84-10.45Q84.84-12.55 84.34-13.93 83.84-15.3 83.07-16.23 82.29-17.15 80.29-19.1L80.29-19.1 76.59-22.8Q72.29-27 72.29-32.1L72.29-32.1Q72.29-37.6 74.82-40.48 77.34-43.35 82.19-43.35L82.19-43.35Q87.99-43.35 90.54-40.28 93.09-37.2 93.09-30.65L93.09-30.65 84.34-30.65 84.29-33.6Q84.29-34.45 83.82-34.95 83.34-35.45 82.49-35.45L82.49-35.45Q81.49-35.45 80.99-34.9 80.49-34.35 80.49-33.4L80.49-33.4Q80.49-31.3 82.89-29.05L82.89-29.05 87.89-24.25Q89.64-22.55 90.79-21.03 91.94-19.5 92.64-17.43 93.34-15.35 93.34-12.5L93.34-12.5Q93.34-6.15 91.02-2.88 88.69 0.4 83.34 0.4L83.34 0.4ZM106.39 0.4Q100.54 0.4 97.94-2.5 95.34-5.4 95.34-11.85L95.34-11.85 95.34-16.05 103.79-16.05 103.79-10.7Q103.79-7.5 105.84-7.5L105.84-7.5Q106.99-7.5 107.44-8.18 107.89-8.85 107.89-10.45L107.89-10.45Q107.89-12.55 107.39-13.93 106.89-15.3 106.12-16.23 105.34-17.15 103.34-19.1L103.34-19.1 99.64-22.8Q95.34-27 95.34-32.1L95.34-32.1Q95.34-37.6 97.87-40.48 100.39-43.35 105.24-43.35L105.24-43.35Q111.04-43.35 113.59-40.28 116.14-37.2 116.14-30.65L116.14-30.65 107.39-30.65 107.34-33.6Q107.34-34.45 106.87-34.95 106.39-35.45 105.54-35.45L105.54-35.45Q104.54-35.45 104.04-34.9 103.54-34.35 103.54-33.4L103.54-33.4Q103.54-31.3 105.94-29.05L105.94-29.05 110.94-24.25Q112.69-22.55 113.84-21.03 114.99-19.5 115.69-17.43 116.39-15.35 116.39-12.5L116.39-12.5Q116.39-6.15 114.07-2.88 111.74 0.4 106.39 0.4L106.39 0.4ZM136.99 0L119.24 0 119.24-42.95 136.44-42.95 136.44-34.65 127.99-34.65 127.99-26.3 136.09-26.3 136.09-18.2 127.99-18.2 127.99-8.35 136.99-8.35 136.99 0ZM153.13 0L145.03 0 145.03-14.15 138.19-42.95 146.69-42.95 149.09-28.4 151.49-42.95 159.99-42.95 153.13-14.15 153.13 0ZM187.68 0L177.18 0 172.58-42.95 180.98-42.95 183.38-15.85 185.78-42.95 193.78-42.95 196.08-15.85 198.38-42.95 206.88-42.95 202.18 0 191.88 0 189.73-20.7 187.68 0ZM215.58 0L207.23 0 211.38-42.95 225.93-42.95 230.03 0 221.88 0 221.28-6.95 216.08-6.95 215.58 0ZM218.33-35.65L216.73-13.8 220.63-13.8 218.73-35.65 218.33-35.65ZM241.03 0L232.63 0 232.63-42.95 241.47-42.95 245.42-22.4 245.42-42.95 253.72-42.95 253.72 0 245.32 0 241.03-21.5 241.03 0ZM257.52 0L257.52-42.95 269.37-42.95Q273.97-42.95 276.27-40.4 278.57-37.85 278.62-32.85L278.62-32.85 278.72-12.75Q278.77-6.4 276.52-3.2 274.27 0 269.07 0L269.07 0 257.52 0ZM266.17-7.6L267.67-7.6Q270.02-7.6 270.02-9.9L270.02-9.9 270.02-32.05Q270.02-33.5 269.8-34.23 269.57-34.95 268.97-35.2 268.37-35.45 267.12-35.45L267.12-35.45 266.17-35.45 266.17-7.6ZM299.92 0L282.17 0 282.17-42.95 299.37-42.95 299.37-34.65 290.92-34.65 290.92-26.3 299.02-26.3 299.02-18.2 290.92-18.2 290.92-8.35 299.92-8.35 299.92 0ZM302.77 0L302.77-42.95 315.97-42.95Q319.12-42.95 320.84-41.53 322.57-40.1 323.17-37.52 323.77-34.95 323.77-30.95L323.77-30.95Q323.77-27.3 322.82-25.25 321.87-23.2 319.52-22.4L319.52-22.4Q321.47-22 322.34-20.45 323.22-18.9 323.22-16.25L323.22-16.25 323.12 0 314.72 0 314.72-16.8Q314.72-18.6 314.02-19.1 313.32-19.6 311.47-19.6L311.47-19.6 311.47 0 302.77 0ZM311.52-27.05L313.57-27.05Q315.37-27.05 315.37-30.95L315.37-30.95Q315.37-32.65 315.22-33.5 315.07-34.35 314.67-34.68 314.27-35 313.52-35L313.52-35 311.52-35 311.52-27.05Z" opacity="1" transform="matrix(1,0,0,1,0,0)" fill="#ffffff" class="wordmark-text-0" data-fill-palette-color="primary" id="text-0"></path></svg></g></svg></g></svg></g></svg></g><g transform="matrix(1,0,0,1,146.3186491823444,0)"><svg viewBox="0 0 104.86030163531107 74.20986190845616" height="74.20986190845616" width="104.86030163531107"><g><svg xmlns="http://www.w3.org/2000/svg" xmlns:xlink="http://www.w3.org/1999/xlink" version="1.1" x="8" y="0" viewBox="18.817035675048828 23.958999633789062 62.36397933959961 52.082000732421875" enable-background="new 0 0 100 100" xml:space="preserve" height="74.20986190845616" width="88.86030163531107" class="icon-icon-0" data-fill-palette-color="accent" id="icon-0"><g fill="#000000" data-fill-palette-color="accent"><g fill="#000000" data-fill-palette-color="accent"><path d="M66.991 73.615h-5.149c-0.643 0-1.164-0.521-1.164-1.164v-4.209h-7.111c-0.643 0-1.164-0.521-1.164-1.164 0-0.644 0.521-1.164 1.164-1.164h8.275c0.644 0 1.164 0.521 1.164 1.164v4.209h2.821v-4.209c0-0.644 0.521-1.164 1.164-1.164H77.28l-7.609-7.896c-0.323-0.337-0.415-0.833-0.232-1.264 0.183-0.429 0.604-0.708 1.071-0.708h4.234l-7.749-8.978c-0.298-0.345-0.367-0.831-0.178-1.245 0.19-0.414 0.604-0.68 1.059-0.68h3.519l-6.837-7.922-5.624 6.311c-0.427 0.48-1.164 0.522-1.644 0.095s-0.522-1.164-0.095-1.644l6.508-7.301c0.223-0.25 0.558-0.362 0.878-0.39 0.336 0.002 0.653 0.149 0.872 0.403l9.365 10.851c0.298 0.345 0.366 0.831 0.178 1.245-0.19 0.414-0.604 0.68-1.059 0.68h-3.519l7.749 8.978c0.297 0.345 0.366 0.832 0.177 1.245-0.189 0.414-0.603 0.68-1.058 0.68h-4.039l7.609 7.896c0.323 0.336 0.415 0.833 0.232 1.263s-0.604 0.709-1.071 0.709H68.155v4.209C68.155 73.095 67.634 73.615 66.991 73.615z" fill="#ffffff" data-fill-palette-color="accent"></path><path d="M38.157 73.615h-5.148c-0.644 0-1.164-0.521-1.164-1.164v-4.209H19.981c-0.471 0-0.895-0.283-1.075-0.718-0.18-0.434-0.082-0.934 0.25-1.268l7.847-7.883h-4.29c-0.458 0-0.875-0.27-1.062-0.688-0.188-0.418-0.112-0.907 0.193-1.25l7.992-8.964h-3.775c-0.458 0-0.875-0.27-1.062-0.688-0.187-0.419-0.111-0.909 0.194-1.251l9.677-10.852c0.224-0.25 0.557-0.372 0.88-0.389 0.336 0.003 0.654 0.151 0.872 0.406l6.339 7.405c0.419 0.488 0.361 1.224-0.127 1.642-0.488 0.42-1.223 0.36-1.641-0.127l-5.473-6.394-7.061 7.918h3.773c0.459 0 0.875 0.27 1.062 0.688 0.188 0.418 0.111 0.908-0.193 1.25l-7.992 8.964h4.493c0.471 0 0.895 0.283 1.075 0.718 0.18 0.434 0.082 0.934-0.25 1.268l-7.847 7.883h10.227c0.643 0 1.164 0.521 1.164 1.164v4.209h2.82v-4.209c0-0.644 0.521-1.164 1.164-1.164h8.424c0.644 0 1.164 0.521 1.164 1.164 0 0.643-0.521 1.164-1.164 1.164h-7.26v4.209C39.321 73.095 38.801 73.615 38.157 73.615z" fill="#ffffff" data-fill-palette-color="accent"></path><path d="M53.391 76.041H46.63c-0.644 0-1.164-0.521-1.164-1.164v-9.682H31.139c-0.471 0-0.896-0.284-1.076-0.72-0.18-0.437-0.079-0.938 0.255-1.27l10.124-10.072h-5.933c-0.458 0-0.875-0.27-1.062-0.688-0.188-0.419-0.112-0.908 0.193-1.25l10.27-11.518h-5.267c-0.456 0-0.869-0.266-1.059-0.679-0.189-0.414-0.12-0.901 0.177-1.246L49.32 24.362c0.223-0.259 0.548-0.398 0.892-0.403 0.341 0.003 0.665 0.156 0.884 0.418l11.066 13.261c0.244 0.214 0.397 0.526 0.397 0.876 0 0.644-0.521 1.164-1.164 1.164-0.004 0-0.011 0.001-0.018 0H56.44l9.843 11.403c0.252 0.214 0.411 0.532 0.411 0.889 0 0.643-0.521 1.164-1.164 1.164-0.005 0-0.013 0-0.019 0h-5.608l9.812 10.086c0.326 0.335 0.42 0.833 0.238 1.265-0.182 0.431-0.604 0.711-1.072 0.711H54.555v9.682C54.555 75.52 54.034 76.041 53.391 76.041zM47.794 73.713h4.434v-9.682c0-0.643 0.521-1.164 1.163-1.164h12.735l-9.812-10.086c-0.327-0.336-0.421-0.833-0.238-1.265 0.182-0.431 0.604-0.712 1.071-0.712h5.822l-9.952-11.53c-0.298-0.345-0.366-0.831-0.178-1.245 0.19-0.414 0.604-0.68 1.059-0.68h4.993l-8.703-10.428L41.186 37.35h5.322c0.458 0 0.875 0.271 1.062 0.688 0.187 0.419 0.111 0.908-0.194 1.251l-10.27 11.516h6.154c0.472 0 0.896 0.285 1.076 0.721s0.079 0.937-0.255 1.27L33.959 62.867H46.63c0.643 0 1.164 0.521 1.164 1.164V73.713z" fill="#ffffff" data-fill-palette-color="accent"></path></g></g></svg></g></svg></g><g><rect width="69.78552918234445" height="4.842490543764158" y="68.367371364692" x="251.17895081765545" fill="#ffffff" data-fill-palette-color="secondary"></rect><rect width="69.78552918234445" height="4.842490543764158" y="68.367371364692" x="76.53311999999994" fill="#ffffff" data-fill-palette-color="secondary"></rect></g></svg></g><defs></defs></svg><rect width="395.52" height="157.316563144643" fill="none" stroke="none" visibility="hidden"></rect></g></svg></g></svg>